:FULLY-SPECIFIED
:FORCE-ALL-JOINTS-BE-3DOF
:DEGREES
917
root 2.77971 16.2416 32.4337 2.05039 10.7282 2.61234
lfemur -13.4521 1.87508 -0.26346
ltibia 29.6537 -0 0
lfoot -8.03964 -39.293 -0.0170187
ltoes 6.75542 -0 0
rfemur -17.4335 -3.76231 -8.30307
rtibia 40.3897 -0 0
rfoot 9.52392 -14.874 -0.198122
rtoes -11.9378 0 0
lowerback -0.256331 0.132625 -2.79112
upperback -0.68005 0.17704 -4.77289
thorax -0.557673 0.0835155 -3.36487
lowerneck -7.11306 -5.22976 -1.34396
upperneck 4.31556 -7.22803 5.79559
head 2.94029 -3.41942 1.76103
lclavicle 0 0 0
lhumerus -51.548 -36.0837 108.13
lradius 58.6085 -0 0
lwrist 13.3727 0 0
lhand 36.9279 19.6181 0.169474
lfingers 0 0 0
lthumb 59.7234 33.0664 0.00727465
rclavicle 0 0 0
rhumerus -58.0918 34.7025 -101.191
rradius 116.404 -0 0
rwrist -0.148425 0 0
rhand 0.370127 -12.4797 0.132976
rfingers 0 0 0
rthumb 25.8523 -39.9598 0.436847
918
root 2.70445 16.2039 32.4769 2.4468 9.63026 2.97833
lfemur -11.4375 0.611197 0.352094
ltibia 26.1071 -0 0
lfoot -7.90912 -40.4165 -0.0209958
ltoes 7.77661 -0 0
rfemur -18.0192 -3.54695 -8.72955
rtibia 40.3238 -0 0
rfoot 8.04234 -13.7213 -0.244465
rtoes -17.4616 0 0
lowerback -0.733745 0.0346707 -2.77328
upperback -0.799135 0.0700446 -5.16534
thorax -0.41835 0.0258139 -3.78864
lowerneck -7.10659 -4.74964 -1.09141
upperneck 4.24478 -6.60563 5.80825
head 2.88208 -3.10721 1.75303
lclavicle 0 0 0
lhumerus -51.8666 -36.4575 107.861
lradius 58.4792 -0 0
lwrist 14.1389 0 0
lhand 38.0807 20.8852 0.209106
lfingers 0 0 0
lthumb 60.6825 33.1317 0.00897442
rclavicle 0 0 0
rhumerus -58.2388 36.7011 -97.2648
rradius 116.132 -0 0
rwrist -1.03132 0 0
rhand 3.9693 -12.1607 0.164205
rfingers 0 0 0
rthumb 29.2683 -38.8556 0.539431
919
root 2.63202 16.1656 32.5175 2.85422 8.47443 3.35326
lfemur -9.33627 -0.738626 0.950378
ltibia 22.3822 -0 0
lfoot -7.77197 -41.5965 -0.0224166
ltoes 8.84917 -0 0
rfemur -18.6359 -3.32547 -9.17973
rtibia 40.2545 -0 0
rfoot 6.48553 -12.5098 -0.261024
rtoes -23.2632 0 0
lowerback -1.23521 -0.0680484 -2.75366
upperback -0.92342 -0.0432096 -5.57729
thorax -0.271561 -0.0336795 -4.23388
lowerneck -7.09751 -4.2454 -0.826275
upperneck 4.17069 -5.9519 5.82071
head 2.8209 -2.77929 1.74428
lclavicle 0 0 0
lhumerus -52.2005 -36.8514 107.58
lradius 58.3433 -0 0
lwrist 14.9437 0 0
lhand 39.2922 22.2166 0.223266
lfingers 0 0 0
lthumb 61.6898 33.2004 0.00958163
rclavicle 0 0 0
rhumerus -58.2082 38.8039 -93.0327
rradius 115.847 -0 0
rwrist -1.95864 0 0
rhand 7.7497 -11.8243 0.175375
rfingers 0 0 0
rthumb 32.8576 -37.6915 0.576124
920
root 2.56465 16.1285 32.5546 3.25051 7.32298 3.71669
lfemur -7.26043 -2.10115 1.49596
ltibia 18.6795 -0 0
lfoot -7.63564 -42.7695 -0.0210295
ltoes 9.91532 -0 0
rfemur -19.2506 -3.11012 -9.62946
rtibia 40.1856 -0 0
rfoot 4.93804 -11.3055 -0.244858
rtoes -29.0302 0 0
lowerback -1.73372 -0.169978 -2.73327
upperback -1.04615 -0.156668 -5.98654
thorax -0.125197 -0.0916843 -4.67661
lowerneck -7.08618 -3.74423 -0.562808
upperneck 4.09726 -5.30207 5.83223
head 2.76006 -2.45335 1.73524
lclavicle 0 0 0
lhumerus -52.5317 -37.2443 107.302
lradius 58.2083 -0 0
lwrist 15.7437 0 0
lhand 40.4964 23.54 0.209442
lfingers 0 0 0
lthumb 62.6912 33.2686 0.00898884
rclavicle 0 0 0
rhumerus -57.9735 40.8864 -88.6941
rradius 115.563 -0 0
rwrist -2.88041 0 0
rhand 11.5075 -11.4898 0.16447
rfingers 0 0 0
rthumb 36.4253 -36.5343 0.540302
921
root 2.50455 16.0943 32.5872 3.61535 6.23866 4.05012
lfemur -5.3194 -3.39877 1.96386
ltibia 15.1998 -0 0
lfoot -7.50758 -43.8718 -0.0171827
ltoes 10.9172 -0 0
rfemur -19.8296 -2.91215 -10.0541
rtibia 40.1208 -0 0
rfoot 3.48439 -10.1745 -0.200033
rtoes -34.4497 0 0
lowerback -2.20222 -0.265603 -2.7133
upperback -1.16075 -0.264088 -6.37091
thorax 0.0127553 -0.145162 -5.0928
lowerneck -7.07343 -3.2733 -0.31525
upperneck 4.02844 -4.69137 5.84229
head 2.70285 -2.14705 1.72644
lclavicle 0 0 0
lhumerus -52.8423 -37.6146 107.042
lradius 58.0814 -0 0
lwrist 16.4955 0 0
lhand 41.6275 24.7832 0.171108
lfingers 0 0 0
lthumb 63.6322 33.3328 0.00734476
rclavicle 0 0 0
rhumerus -57.5508 42.8254 -84.4762
rradius 115.296 -0 0
rwrist -3.74665 0 0
rhand 15.0387 -11.1768 0.134263
rfingers 0 0 0
rthumb 39.7769 -35.4509 0.441075
922
root 2.45394 16.0647 32.6142 3.92995 5.2847 4.33669
lfemur -3.62108 -4.55082 2.33882
ltibia 12.144 -0 0
lfoot -7.3952 -44.8398 -0.0117732
ltoes 11.7971 -0 0
rfemur -20.3392 -2.74184 -10.4286
rtibia 40.064 -0 0
rfoot 2.20873 -9.18255 -0.137024
rtoes -39.2092 0 0
lowerback -2.6137 -0.349444 -2.69511
upperback -1.26079 -0.359056 -6.70829
thorax 0.134223 -0.191299 -5.4584
lowerneck -7.06056 -2.85978 -0.0978478
upperneck 3.96814 -4.15505 5.85051
head 2.65258 -1.87806 1.71845
lclavicle 0 0 0
lhumerus -53.1147 -37.9408 106.815
lradius 57.9699 -0 0
lwrist 17.1557 0 0
lhand 42.6199 25.8741 0.117218
lfingers 0 0 0
lthumb 64.4586 33.389 0.00503264
rclavicle 0 0 0
rhumerus -57.0042 44.5047 -80.6424
rradius 115.062 -0 0
rwrist -4.50739 0 0
rhand 18.1397 -10.9039 0.091877
rfingers 0 0 0
rthumb 42.7182 -34.5056 0.301836
923
root 2.41504 16.0414 32.6348 4.17651 4.52461 4.56064
lfemur -2.27315 -5.47502 2.61302
ltibia 9.71273 -0 0
lfoot -7.30585 -45.61 -0.00611341
ltoes 12.4972 -0 0
rfemur -20.7454 -2.60871 -10.7276
rtibia 40.0188 -0 0
rfoot 1.19469 -8.39446 -0.0711343
rtoes -42.9959 0 0
lowerback -2.9411 -0.416055 -2.68022
upperback -1.33999 -0.435035 -6.9766
thorax 0.231075 -0.227453 -5.74936
lowerneck -7.0492 -2.53081 0.0751354
upperneck 3.92024 -3.72833 5.85664
head 2.61256 -1.66406 1.71193
lclavicle 0 0 0
lhumerus -53.3311 -38.2009 106.635
lradius 57.8812 -0 0
lwrist 17.681 0 0
lhand 43.4086 26.7413 0.0608561
lfingers 0 0 0
lthumb 65.1161 33.4338 0.00261338
rclavicle 0 0 0
rhumerus -56.4434 45.8192 -77.4949
rradius 114.876 -0 0
rwrist -5.11264 0 0
rhand 20.6068 -10.6886 0.0476453
rfingers 0 0 0
rthumb 45.0564 -33.7594 0.156528
924
root 2.39008 16.0262 32.6479 4.33761 4.02201 4.70664
lfemur -1.38403 -6.08891 2.78236
ltibia 8.10675 -0 0
lfoot -7.24688 -46.1187 -0.00171644
ltoes 12.9596 -0 0
rfemur -21.0141 -2.52195 -10.9256
rtibia 39.9889 -0 0
rfoot 0.525406 -7.87457 -0.0199683
rtoes -45.4972 0 0
lowerback -3.15738 -0.460008 -2.67017
upperback -1.39211 -0.485426 -7.15378
thorax 0.29515 -0.251064 -5.94158
lowerneck -7.04115 -2.31353 0.189412
upperneck 3.88864 -3.44646 5.8605
head 2.58611 -1.5227 1.70754
lclavicle 0 0 0
lhumerus -53.4739 -38.373 106.517
lradius 57.8227 -0 0
lwrist 18.028 0 0
lhand 43.9292 27.3137 0.0170839
lfingers 0 0 0
lthumb 65.5504 33.4633 0.000733774
rclavicle 0 0 0
rhumerus -56.0083 46.6746 -75.3643
rradius 114.752 -0 0
rwrist -5.51245 0 0
rhand 22.2363 -10.5476 0.0133634
rfingers 0 0 0
rthumb 46.5998 -33.27 0.0439035
925
root 2.13513 15.8796 32.7337 4.39544 3.84042 4.759
lfemur -1.06315 -6.31122 2.8412
ltibia 7.52681 0 0
lfoot -7.2256 -46.3024 0
ltoes 13.1266 0 0
rfemur -21.1112 -2.49084 -10.9972
rtibia 39.9781 0 0
rfoot 0.283837 -7.68699 0
rtoes -46.4005 0 0
lowerback -3.23548 -0.47587 -2.6665
upperback -1.41089 -0.503662 -7.21775
thorax 0.318308 -0.259537 -6.011
lowerneck -7.03814 -2.23507 0.230682
upperneck 3.87724 -3.34467 5.86185
head 2.57656 -1.47165 1.70594
lclavicle -1.85118e-15 0 0
lhumerus -53.5254 -38.4352 106.474
lradius 57.8015 0 0
lwrist 18.1533 0 0
lhand 44.117 27.5203 0
lfingers 7.12502 0 0
lthumb 65.7072 33.474 0
rclavicle -1.85118e-15 0 0
rhumerus -55.8381 46.9807 -74.5842
rradius 114.708 0 0
rwrist -5.65682 0 0
rhand 22.8247 -10.4969 0
rfingers 7.12502 0 0
rthumb 47.1569 -33.094 0
926
root 2.06917 15.8409 32.7531 4.48965 3.46489 4.80076
lfemur -0.724712 -5.93714 2.73883
ltibia 7.41104 -0 0
lfoot -8.62923 -44.5843 -0.335034
ltoes 10.5696 -0 0
rfemur -21.6083 -2.85011 -10.9466
rtibia 40.4166 -0 0
rfoot -0.509656 -7.37651 -0.0333247
rtoes -46.2888 0 0
lowerback -3.25571 -0.516326 -2.55996
upperback -1.40597 -0.560229 -7.24636
thorax 0.326574 -0.288985 -6.10582
lowerneck -7.04302 -2.06297 0.406003
upperneck 3.78018 -3.11903 5.76092
head 2.53642 -1.36288 1.65107
lclavicle 0 0 0
lhumerus -53.81 -38.7459 106.681
lradius 57.7106 -0 0
lwrist 18.667 0 0
lhand 43.9509 27.4547 0.00146692
lfingers 0 0 0
lthumb 65.575 33.6207 -0.00261326
rclavicle 0 0 0
rhumerus -52.3452 47.2193 -70.0593
rradius 111.417 -0 0
rwrist -6.47031 0 0
rhand 21.6309 -11.2603 0.124261
rfingers 0 0 0
rthumb 46.035 -34.1744 0.165705
927
root 2.00605 15.8022 32.7675 4.62403 2.92697 4.85945
lfemur -0.241587 -5.40039 2.59622
ltibia 7.24524 -0 0
lfoot -10.6556 -42.1106 -0.741001
ltoes 6.90765 -0 0
rfemur -22.3211 -3.36382 -10.8688
rtibia 41.0446 -0 0
rfoot -1.64631 -6.93113 -0.073553
rtoes -46.1288 0 0
lowerback -3.28481 -0.574197 -2.40736
upperback -1.39887 -0.641235 -7.28734
thorax 0.338497 -0.331133 -6.24162
lowerneck -7.04908 -1.81649 0.657023
upperneck 3.64053 -2.7962 5.61574
head 2.47877 -1.20717 1.57237
lclavicle 0 0 0
lhumerus -54.2222 -39.1894 106.982
lradius 57.5803 -0 0
lwrist 19.4026 0 0
lhand 43.7129 27.3609 0.00323666
lfingers 0 0 0
lthumb 65.3856 33.8309 -0.00576599
rclavicle 0 0 0
rhumerus -47.3059 47.2319 -63.5434
rradius 106.705 -0 0
rwrist -7.6353 0 0
rhand 19.9186 -12.3578 0.274433
rfingers 0 0 0
rthumb 44.4232 -35.7268 0.366037
928
root 1.94647 15.7642 32.7775 4.78771 2.26829 4.92955
lfemur 0.347453 -4.74174 2.42799
ltibia 7.04227 -0 0
lfoot -13.1573 -39.065 -1.11795
ltoes 2.42495 -0 0
rfemur -23.1951 -3.9913 -10.7647
rtibia 41.8134 -0 0
rfoot -3.03809 -6.38498 -0.110757
rtoes -45.9329 0 0
lowerback -3.32064 -0.644934 -2.22052
upperback -1.39011 -0.74039 -7.33752
thorax 0.353228 -0.382689 -6.40788
lowerneck -7.05504 -1.51473 0.964229
upperneck 3.46851 -2.40149 5.43701
head 2.4079 -1.01667 1.47581
lclavicle 0 0 0
lhumerus -54.7345 -39.73 107.358
lradius 57.4209 -0 0
lwrist 20.3031 0 0
lhand 43.4217 27.2459 0.00487232
lfingers 0 0 0
lthumb 65.1538 34.0881 -0.00867988
rclavicle 0 0 0
rhumerus -41.2116 46.7208 -55.6386
rradius 100.936 -0 0
rwrist -9.06141 0 0
rhand 17.8191 -13.7066 0.41348
rfingers 0 0 0
rthumb 42.4437 -37.634 0.551604
929
root 1.89118 15.7279 32.7838 4.96994 1.53053 5.00578
lfemur 1.0041 -4.00225 2.24787
ltibia 6.81501 -0 0
lfoot -15.978 -35.6385 -1.38124
ltoes -2.59441 0 0
rfemur -24.176 -4.69192 -10.6366
rtibia 42.6741 -0 0
rfoot -4.59685 -5.77257 -0.136656
rtoes -45.7136 0 0
lowerback -3.36104 -0.724 -2.01125
upperback -1.38019 -0.851407 -7.39372
thorax 0.3699 -0.440367 -6.59405
lowerneck -7.05978 -1.17681 1.30813
upperneck 3.27449 -1.96016 5.23553
head 2.32818 -0.803513 1.36742
lclavicle 0 0 0
lhumerus -55.3185 -40.3321 107.791
lradius 57.2424 -0 0
lwrist 21.3114 0 0
lhand 43.0955 27.1172 0.0060104
lfingers 0 0 0
lthumb 64.8943 34.3762 -0.0107073
rclavicle 0 0 0
rhumerus -34.6839 45.4866 -47.0715
rradius 94.4759 -0 0
rwrist -10.6583 0 0
rhand 15.465 -15.2218 0.510372
rfingers 0 0 0
rthumb 40.2212 -39.7757 0.680954
930
root 1.8409 15.6938 32.787 5.16024 0.755397 5.08329
lfemur 1.69069 -3.22339 2.06799
ltibia 6.57632 -0 0
lfoot -18.9523 -32.03 -1.47548
ltoes -7.86632 0 0
rfemur -25.2091 -5.42532 -10.489
rtibia 43.5782 -0 0
rfoot -6.23423 -5.12885 -0.14591
rtoes -45.4832 0 0
lowerback -3.40378 -0.806884 -1.79139
upperback -1.36965 -0.967999 -7.45278
thorax 0.387613 -0.500888 -6.78961
lowerneck -7.06258 -0.821861 1.66927
upperneck 3.06908 -1.49737 5.02235
head 2.24401 -0.57979 1.25327
lclavicle 0 0 0
lhumerus -55.944 -40.9609 108.259
lradius 57.0549 -0 0
lwrist 22.3705 0 0
lhand 42.753 26.9821 0.00641691
lfingers 0 0 0
lthumb 64.6216 34.6788 -0.0114316
rclavicle 0 0 0
rhumerus -28.3632 43.4992 -38.5839
rradius 87.6912 -0 0
rwrist -12.3354 0 0
rhand 12.9906 -16.8161 0.545011
rfingers 0 0 0
rthumb 37.8834 -42.0288 0.727205
